<svg id="Layer_1" data-name="Layer 1" xmlns="http://www.w3.org/2000/svg" viewBox="0 0 207.011 39.365" width="205" height="38"><defs><style>.cls-1{fill:#ec1c24;}.cls-2{fill:#ec1c24;}</style></defs><title>Coles_Group_Horizontal_Screen_RGB</title><path class="cls-1" d="M72.237,49.617a11.757,11.757,0,1,0,0,5.761H67.276a7.055,7.055,0,1,1,0-5.761Z" transform="translate(-49.079 -33.72)"/><path class="cls-1" d="M96.808,52.5A11.757,11.757,0,1,0,85.051,64.254,11.756,11.756,0,0,0,96.808,52.5m-4.7,0a7.054,7.054,0,1,1-7.054-7.054A7.055,7.055,0,0,1,92.105,52.5" transform="translate(-49.079 -33.72)"/><rect class="cls-1" x="49.254" width="5.152" height="29.959"/><path class="cls-1" d="M127.3,53.557c.031-.384.05-.775.048-1.175.013-8.7-6.6-11.641-11.168-11.642h0c-4.569,0-11.18,2.937-11.168,11.642C105,59.6,110.245,64.255,116.183,64.254h0a11.009,11.009,0,0,0,10.625-8.013h-5.057a6.274,6.274,0,0,1-5.568,3.546h0c-3.112,0-5.9-2.4-6.389-6.234h12.778v0Zm-11.121-8.584h0a6.328,6.328,0,0,1,6.091,4.6H110.092a6.328,6.328,0,0,1,6.091-4.6" transform="translate(-49.079 -33.72)"/><path class="cls-1" d="M137.573,64.2c-5.942,0-9.351-2.862-9.351-7.855v-.1h4.652l0,.1c.2,2.659,1.876,3.952,5.112,3.952,2.691,0,4.364-1.1,4.364-2.867,0-1.5-1.138-2.061-3.377-2.62l-3.284-.831a12.274,12.274,0,0,1-5.138-2.227,5.023,5.023,0,0,1-1.708-4.089,6.181,6.181,0,0,1,2.269-4.967,9.911,9.911,0,0,1,6.333-1.89,10.481,10.481,0,0,1,6.6,1.951,6.366,6.366,0,0,1,2.415,5.155v.042h-4.61l0-.04c-.124-2.148-1.705-3.285-4.572-3.285-2.256,0-3.657.892-3.657,2.327,0,1.6,1.387,2.234,3.625,2.744l2.784.624c4.577,1.063,7.056,2.417,7.056,6.523a6.574,6.574,0,0,1-2.478,5.389,11.373,11.373,0,0,1-7.039,1.967" transform="translate(-49.079 -33.72)"/><path class="cls-2" d="M151.89,52.411a8.613,8.613,0,0,0,8.9,8.853,8.5,8.5,0,0,0,6.22-2.553,9.293,9.293,0,0,0,2.47-6.26,9.569,9.569,0,0,0-2.018-5.806,8.163,8.163,0,0,0-6.755-3.09,8.62,8.62,0,0,0-8.813,8.814Zm20.51,8.525c0,4.2-1.36,6.877-3.3,8.73a12.381,12.381,0,0,1-8.4,3.419c-5.519,0-9.555-3.171-10.955-7.167h3.5a8.513,8.513,0,0,0,2.635,2.925,8.735,8.735,0,0,0,4.9,1.606,8.583,8.583,0,0,0,8.567-8.813V58.794a9.577,9.577,0,0,1-8.937,5.312,11.321,11.321,0,0,1-11.574-11.655,11.344,11.344,0,0,1,11.574-11.737,9.806,9.806,0,0,1,8.978,5.19V41.332H172.4Z" transform="translate(-49.079 -33.72)"/><path class="cls-2" d="M229.74,63.489h-2.883V59.535c-1.236,2.883-4.241,4.613-8.194,4.571-6.92-.123-9.35-4.818-9.35-10.213V41.332h3.007V53.316c0,4.778,2.141,7.99,7.125,7.948,4.613-.041,7.248-2.8,7.248-7.412V41.332h3.047Z" transform="translate(-49.079 -33.72)"/><path class="cls-2" d="M253.043,52.37a8.646,8.646,0,0,0-8.9-8.856,8.772,8.772,0,0,0-6.26,2.595,9.152,9.152,0,0,0-2.471,6.343,8.653,8.653,0,0,0,8.813,8.813,8.655,8.655,0,0,0,8.814-8.854ZM232.574,41.332h2.883v4.613a10.189,10.189,0,0,1,9.267-5.231c7.454,0,11.367,6.054,11.367,11.779,0,6.177-4.49,11.614-11.367,11.614-4.9,0-8.072-2.842-9.1-5.149V71.891h-3.047Z" transform="translate(-49.079 -33.72)"/><path class="cls-2" d="M195.507,40.714A11.676,11.676,0,1,0,207.182,52.39a11.676,11.676,0,0,0-11.675-11.676m0,2.96a8.716,8.716,0,1,1-8.716,8.716,8.726,8.726,0,0,1,8.716-8.716" transform="translate(-49.079 -33.72)"/><path class="cls-2" d="M188.312,40.724l.014-.01h-3.1c-2.6.082-5.478.947-7.084,4.242V41.332h-2.883V62.453h3.006V51.421c0-5,2.368-7.673,6.612-7.7A13.776,13.776,0,0,1,188.312,40.724Z" transform="translate(-49.079 -33.72)"/><path class="cls-2" d="M172.093,70.2a11.957,11.957,0,0,1-1.145,1.292c-.144.141-.3.266-.455.4h59.669V70.2Z" transform="translate(-49.079 -33.72)"/></svg>