<svg width="87" height="112" viewBox="0 0 87 112" fill="none" xmlns="http://www.w3.org/2000/svg">
<g clip-path="url(#clip0_655_2946)">
<path d="M43.5475 0L10.1172 19.6636V57.6405C26.8766 39.1233 43.5475 40.8773 43.5475 40.8773C64.492 40.8773 77.201 57.6405 77.201 57.6405V19.3481L43.5475 0ZM43.4783 6.51606L16.2832 22.2254C16.4832 23.4832 15.56 23.6871 15.56 23.6871C13.4713 22.1484 15.6523 21.1906 15.6523 21.1906L42.4321 5.56211C44.4361 4.40815 43.4899 6.50451 43.4899 6.50451" fill="#E50000"/>
<path d="M43.5071 47.1468C43.5071 47.1468 29.7595 45.6082 15.2734 61.3021L43.3956 77.4384L71.31 61.3021C71.333 61.3021 59.6587 47.1468 43.5071 47.1468ZM38.6258 51.9781C35.2293 52.8551 28.5018 54.6053 22.9012 60.0558C22.9012 60.0558 20.8087 60.8444 21.9549 58.798C21.9549 58.798 31.6944 50.2587 39.9299 51.1588C39.9299 51.1588 40.5837 51.4703 38.6258 51.9896" fill="#E50000"/>
<path d="M0 98.6302V88.8984H7.04303V90.0447H1.2809V93.0335H6.68146V94.1797H1.2809V97.507H7.26613V98.6533H0V98.6302Z" fill="black"/>
<path d="M10.1016 98.6302V88.8984H11.4286L16.5561 96.5415V88.8984H17.7947V98.6302H16.4676L11.3402 90.9679V98.6302H10.1016Z" fill="black"/>
<path d="M25.5811 94.8014V93.6474H29.72V97.2631C29.1261 97.7397 28.4667 98.1284 27.762 98.4171C27.1005 98.6669 26.3998 98.7971 25.6926 98.8018C24.7857 98.8138 23.8893 98.6053 23.0808 98.194C22.3183 97.8006 21.6971 97.1795 21.3037 96.4169C20.8937 95.6109 20.6864 94.717 20.6998 93.8128C20.6945 92.8956 20.8943 91.9888 21.2845 91.1587C21.6358 90.3793 22.2367 89.7391 22.9924 89.3392C23.7824 88.923 24.6651 88.7139 25.558 88.7315C26.2147 88.722 26.8673 88.8368 27.4812 89.07C28.0025 89.2672 28.4665 89.5911 28.8314 90.0124C29.179 90.4919 29.431 91.0339 29.5737 91.6087L28.4198 91.9241C28.2962 91.5151 28.1135 91.1263 27.8775 90.7702C27.646 90.4581 27.3256 90.2234 26.9582 90.097C26.5305 89.9208 26.0704 89.8369 25.608 89.8508C25.0823 89.8372 24.5592 89.9287 24.0694 90.1201C23.6748 90.268 23.3203 90.5065 23.0346 90.8163C22.771 91.0954 22.5646 91.4234 22.4269 91.7818C22.173 92.402 22.0423 93.0657 22.0423 93.7359C22.0201 94.488 22.1742 95.2349 22.4923 95.9169C22.7751 96.4807 23.2324 96.938 23.7962 97.2208C24.3588 97.5094 24.9834 97.656 25.6156 97.6478C26.1778 97.6443 26.7346 97.5374 27.2581 97.3324C27.6997 97.1705 28.1107 96.9351 28.4737 96.6362V94.8014H25.5811Z" fill="black"/>
<path d="M34.1676 88.8984H32.8867V98.6302H34.1676V88.8984Z" fill="black"/>
<path d="M37.5 98.6302V88.8984H38.8271L43.9584 96.5415V88.8984H45.1969V98.6302H43.866L38.7386 90.9679V98.6302H37.5Z" fill="black"/>
<path d="M48.4375 98.6302V88.8984H55.4767V90.0447H49.7184V93.0335H55.119V94.1797H49.7184V97.507H55.7036V98.6533H48.4375V98.6302Z" fill="black"/>
<path d="M58.6016 98.6302V88.8984H65.6446V90.0447H59.8863V93.0335H65.283V94.1797H59.8863V97.507H65.8677V98.6533H58.6016V98.6302Z" fill="black"/>
<path d="M68.7266 98.6491V88.9174H73.0462C73.7161 88.8884 74.3857 88.9796 75.0234 89.1866C75.4733 89.3707 75.8521 89.6943 76.1042 90.1098C76.3732 90.5495 76.5131 91.056 76.5081 91.5715C76.5174 91.8932 76.4626 92.2136 76.3471 92.5141C76.2315 92.8145 76.0575 93.089 75.835 93.3217C75.2709 93.8533 74.5391 94.1716 73.7656 94.2217C74.0544 94.3418 74.321 94.5095 74.5542 94.718C74.9698 95.1012 75.3319 95.5384 75.6311 96.0181L77.3198 98.6722H75.7004L74.4156 96.6489C74.031 96.0642 73.7194 95.6142 73.4963 95.2988C73.3068 95.0552 73.087 94.8368 72.8424 94.6487C72.6617 94.5308 72.4647 94.4401 72.2577 94.3795C72.0194 94.3462 71.779 94.3308 71.5384 94.3333H70.0306V98.6491H68.7266ZM70.0306 93.2101H72.7808C73.2454 93.2257 73.7094 93.1646 74.1541 93.0293C74.4698 92.9302 74.7416 92.725 74.9234 92.4485C75.0992 92.1898 75.193 91.8842 75.1926 91.5715C75.2006 91.3547 75.1606 91.1389 75.0754 90.9395C74.9903 90.74 74.8622 90.5618 74.7003 90.4175C74.238 90.0808 73.6702 89.9211 73.1001 89.9675H70.0229L70.0306 93.2101Z" fill="black"/>
<path d="M79.1641 95.5057L80.3757 95.3942C80.4215 95.8157 80.5608 96.2218 80.7834 96.5827C81.0311 96.9298 81.3746 97.1972 81.7719 97.352C82.2476 97.5572 82.762 97.6569 83.2799 97.6444C83.7248 97.6545 84.1675 97.5788 84.5838 97.4213C84.9165 97.3087 85.2067 97.0966 85.4147 96.8135C85.5919 96.5727 85.6875 96.2816 85.6878 95.9827C85.6904 95.6892 85.5942 95.4033 85.4147 95.171C85.1787 94.9026 84.8762 94.701 84.5377 94.5864C83.9726 94.3888 83.3942 94.232 82.8067 94.1171C82.1591 93.9756 81.5266 93.772 80.918 93.5093C80.497 93.3101 80.139 92.9986 79.8833 92.6092C79.6556 92.2466 79.538 91.8257 79.5449 91.3976C79.5405 90.9065 79.6897 90.4264 79.9718 90.0244C80.2705 89.5874 80.6942 89.2509 81.1874 89.0589C81.759 88.8282 82.3711 88.7145 82.9875 88.7242C83.6466 88.7072 84.3019 88.829 84.9108 89.082C85.4314 89.2913 85.8776 89.6517 86.1917 90.1167C86.4872 90.5766 86.6508 91.1088 86.6648 91.6553L85.4262 91.7438C85.4112 91.4788 85.344 91.2194 85.2285 90.9804C85.113 90.7415 84.9514 90.5277 84.753 90.3513C84.2542 90.0011 83.6491 89.8352 83.0413 89.882C82.4403 89.829 81.8388 89.9793 81.3335 90.309C81.1687 90.4262 81.0341 90.5806 80.9405 90.7598C80.8469 90.939 80.797 91.1377 80.795 91.3399C80.7915 91.5019 80.8242 91.6626 80.8908 91.8103C80.9573 91.9581 81.056 92.0891 81.1797 92.1938C81.4258 92.4208 82.0797 92.6439 83.1029 92.89C83.8391 93.0376 84.5611 93.2486 85.2608 93.5209C85.763 93.7302 86.1991 94.0719 86.5225 94.5094C86.7963 94.9214 86.9373 95.4074 86.9264 95.9019C86.9228 96.4227 86.7663 96.931 86.4764 97.3636C86.1582 97.835 85.7145 98.208 85.1954 98.4406C84.6 98.7003 83.9564 98.8314 83.3068 98.8253C82.5465 98.843 81.79 98.7124 81.0796 98.4406C80.509 98.2048 80.0224 97.8027 79.6833 97.2866C79.3605 96.7574 79.1828 96.1524 79.1679 95.5326" fill="black"/>
<path d="M10.75 111.865L13.6311 104.402H14.6966L17.7546 111.865H16.6198L15.7428 109.595H12.6156L11.804 111.865H10.75ZM12.9118 108.807H15.4659L14.6966 106.741C14.4504 106.11 14.2927 105.587 14.1581 105.202C14.0633 105.685 13.9268 106.159 13.7503 106.618L12.9118 108.807Z" fill="black"/>
<path d="M24.3874 104.418H25.376V108.734C25.393 109.342 25.3099 109.949 25.1299 110.53C24.9536 110.985 24.628 111.366 24.2067 111.611C23.6673 111.895 23.0613 112.028 22.4526 111.996C21.8608 112.025 21.2715 111.902 20.7409 111.638C20.3062 111.415 19.9702 111.038 19.7985 110.58C19.5864 109.982 19.4873 109.349 19.5062 108.715V104.418H20.4948V108.734C20.475 109.22 20.5361 109.706 20.6755 110.172C20.7933 110.479 21.0153 110.733 21.3025 110.892C21.6367 111.062 22.0082 111.147 22.3834 111.138C23.1027 111.138 23.622 110.98 23.922 110.646C24.222 110.311 24.3913 109.676 24.3913 108.757V104.418H24.3874Z" fill="black"/>
<path d="M27.6484 109.461L28.5678 109.369C28.6 109.697 28.7079 110.013 28.8832 110.292C29.0699 110.554 29.3276 110.757 29.6256 110.877C29.9891 111.035 30.3832 111.112 30.7796 111.1C31.1163 111.113 31.4522 111.06 31.7681 110.942C32.0257 110.85 32.2523 110.688 32.4221 110.473C32.5517 110.288 32.6215 110.068 32.6221 109.842C32.628 109.623 32.5573 109.408 32.4221 109.234C32.2369 109.032 32.0043 108.878 31.7451 108.788C31.5412 108.719 31.0912 108.584 30.418 108.427C29.9201 108.332 29.4364 108.173 28.9793 107.954C28.6614 107.8 28.3943 107.558 28.21 107.257C28.0303 106.985 27.9365 106.664 27.9408 106.338C27.9438 105.963 28.0532 105.596 28.2562 105.28C28.4796 104.935 28.811 104.674 29.1986 104.538C29.6384 104.376 30.1032 104.293 30.5719 104.292C31.0722 104.283 31.5693 104.374 32.0336 104.561C32.424 104.719 32.7586 104.989 32.9949 105.338C33.2312 105.687 33.3585 106.098 33.3606 106.519L32.4182 106.584C32.4079 106.379 32.3567 106.178 32.2675 105.993C32.1783 105.808 32.0529 105.643 31.8989 105.507C31.5215 105.235 31.0589 105.106 30.595 105.146C30.1342 105.104 29.6734 105.224 29.2909 105.484C29.1681 105.572 29.0674 105.687 28.9966 105.821C28.9259 105.954 28.887 106.102 28.8832 106.253C28.8771 106.378 28.9005 106.502 28.9512 106.615C29.002 106.729 29.0789 106.829 29.1755 106.907C29.6279 107.188 30.1335 107.371 30.6603 107.446C31.2276 107.557 31.7847 107.716 32.3259 107.919C32.7146 108.08 33.0504 108.346 33.2952 108.688C33.5015 109.002 33.6111 109.37 33.6106 109.746C33.6082 110.145 33.4907 110.535 33.2721 110.869C33.034 111.234 32.6886 111.516 32.2835 111.677C31.8309 111.882 31.3378 111.982 30.8411 111.969C30.2578 111.989 29.6767 111.89 29.1332 111.677C28.6937 111.489 28.3182 111.178 28.0523 110.781C27.7916 110.388 27.6574 109.925 27.6677 109.454" fill="black"/>
<path d="M37.794 111.865V105.279H35.3438V104.402H41.2597V105.279H38.7864V111.865H37.794Z" fill="black"/>
<path d="M43.2148 111.865V104.418H46.5422C47.063 104.396 47.5837 104.465 48.0808 104.622C48.4302 104.762 48.7226 105.016 48.9116 105.341C49.1177 105.68 49.2268 106.068 49.2271 106.465C49.2333 106.964 49.0489 107.447 48.7116 107.815C48.2682 108.215 47.7064 108.459 47.1114 108.511C47.3273 108.606 47.5262 108.736 47.7 108.896C48.0094 109.19 48.2807 109.522 48.5077 109.884L49.8117 111.907H48.577L47.5846 110.369C47.3632 110.011 47.1231 109.666 46.8652 109.334C46.7297 109.143 46.5634 108.975 46.3729 108.838C46.2335 108.75 46.0818 108.682 45.9228 108.638C45.744 108.605 45.5624 108.589 45.3805 108.592H44.2265V111.896L43.2148 111.865ZM44.2034 107.707H46.319C46.6766 107.719 47.0338 107.674 47.3768 107.572C47.6157 107.49 47.8211 107.332 47.9615 107.122C48.0949 106.923 48.1647 106.689 48.1616 106.449C48.164 106.284 48.1309 106.12 48.0645 105.969C47.9982 105.818 47.9001 105.682 47.7769 105.572C47.4256 105.317 46.9937 105.198 46.5614 105.237H44.1996L44.2034 107.707Z" fill="black"/>
<path d="M50.8867 111.865L53.7678 104.402H54.8256L57.8836 111.865H56.7566L55.8795 109.595H52.7522L51.9445 111.865H50.8867ZM53.0253 108.807H55.5679L54.7794 106.726C54.5294 106.095 54.3948 105.572 54.237 105.187C54.1454 105.67 54.0102 106.144 53.8331 106.603L53.0253 108.807Z" fill="black"/>
<path d="M59.5703 111.865V104.402H60.5589V110.988H64.2477V111.865H59.5703Z" fill="black"/>
<path d="M67.512 104.402H66.5234V111.865H67.512V104.402Z" fill="black"/>
<path d="M69.3984 111.865L72.2795 104.402H73.3373L76.4145 111.865H75.2914L74.4144 109.595H71.2872L70.4755 111.865H69.3984ZM71.5602 108.807H74.1028L73.3142 106.741C73.068 106.11 72.9296 105.587 72.7757 105.202C72.6809 105.685 72.5445 106.159 72.368 106.618L71.5602 108.807Z" fill="black"/>
</g>
<defs>
<clipPath id="clip0_655_2946">
<rect width="86.9243" height="112" fill="white"/>
</clipPath>
</defs>
</svg>
