<svg width="125" height="48" viewBox="0 0 125 48" fill="none" xmlns="http://www.w3.org/2000/svg">
<g clip-path="url(#clip0_11447_1884)">
<path d="M67.0006 15.9968C69.7991 15.9968 72.2498 17.3912 73.5601 19.6541L78.198 17.4584C76.0802 13.594 71.9168 11.2048 67.0006 11.2048C59.7578 11.2048 54.1409 16.3792 54.1409 23.6775C54.1409 30.9758 59.7578 36.1493 67.0006 36.1493C71.9168 36.1493 76.0802 33.7628 78.198 29.8957L73.5601 27.7C72.2498 29.9638 69.7991 31.3592 67.0006 31.3592C62.7314 31.3592 59.2851 28.1188 59.2851 23.6775C59.2851 19.2362 62.7314 15.9959 67.0006 15.9959V15.9968Z" fill="#00A86E"/>
<path d="M95.5252 21.6054H85.7275V11.9298H80.4966V35.4262H85.7467V25.7506H95.5069V35.4262H100.755V11.9298H95.5252V21.6054Z" fill="#00A86E"/>
<path d="M119.023 11.9298L119.005 26.5173C119.005 29.5832 117.185 31.3601 114.439 31.3601C111.692 31.3601 109.855 29.5832 109.855 26.5173V11.9298H104.608V26.1857C104.608 32.6828 108.578 36.1502 114.439 36.1502C120.299 36.1502 124.271 32.6837 124.271 26.1857V11.9298H119.023Z" fill="#00A86E"/>
<path d="M18.2203 10.35C18.2632 20.1346 30.7233 28.1805 47.2091 29.9175V17.1713L23.4686 -0.234985C20.1245 2.86093 18.2002 6.48373 18.2194 10.35H18.2203Z" fill="#00A86E"/>
<path d="M-0.275391 17.1714V30.2291L23.4669 47.5909L47.097 30.3118C26.2836 31.2901 7.04685 24.7531 -0.275391 17.1714Z" fill="#00A86E"/>
</g>
<defs>
<clipPath id="clip0_11447_1884">
<rect width="125" height="48" fill="white"/>
</clipPath>
</defs>
</svg>
